<svg xmlns="http://www.w3.org/2000/svg" width="580" height="503" viewBox="0 0 580 503"><g transform="translate(0 0)"><path d="M907.6,791.992v-54.38S928.795,776.165,907.6,791.992Z" transform="translate(-376.764 -289.533)" fill="#f1f1f1"/><path d="M896.114,797.793l-40.06-36.776S898.786,771.478,896.114,797.793Z" transform="translate(-363.966 -295.344)" fill="#f1f1f1"/><path d="M604.42,329.273,391.841,453.518a3.252,3.252,0,0,1-4.444-1.165L250.7,218.46a3.252,3.252,0,0,1,1.165-4.444L464.439,89.772a3.252,3.252,0,0,1,4.444,1.165l136.7,233.892a3.252,3.252,0,0,1-1.164,4.444Z" transform="translate(-232.773 -89.328)" fill="#fff"/><path d="M604.42,329.273,391.841,453.518a3.252,3.252,0,0,1-4.444-1.165L250.7,218.46a3.252,3.252,0,0,1,1.165-4.444L464.439,89.772a3.252,3.252,0,0,1,4.444,1.165l136.7,233.892a3.252,3.252,0,0,1-1.164,4.444Zm-351.9-114.135a1.951,1.951,0,0,0-.7,2.666L388.52,451.7a1.951,1.951,0,0,0,2.666.7L603.764,328.151a1.951,1.951,0,0,0,.7-2.666L467.761,91.593a1.951,1.951,0,0,0-2.666-.7Z" transform="translate(-232.773 -89.328)" fill="#3f3d56"/><path d="M405.836,268.262l-52.724,30.815a3.252,3.252,0,0,1-4.444-1.165l-30.815-52.724a3.252,3.252,0,0,1,1.165-4.444l52.724-30.815a3.252,3.252,0,0,1,4.444,1.165L407,263.818A3.252,3.252,0,0,1,405.836,268.262Zm-86.162-26.4a1.951,1.951,0,0,0-.7,2.666l30.815,52.724a1.951,1.951,0,0,0,2.666.7l52.724-30.815a1.951,1.951,0,0,0,.7-2.666L375.064,211.75a1.951,1.951,0,0,0-2.666-.7Z" transform="translate(-249.446 -127.001)" fill="#f2f2f2"/><path d="M390.867,288.816l-52.724,30.815a2.927,2.927,0,0,1-4-1.049l-30.815-52.724a2.927,2.927,0,0,1,1.049-4L357.1,231.044a2.927,2.927,0,0,1,4,1.049l30.815,52.724A2.927,2.927,0,0,1,390.867,288.816Z" transform="translate(-245.851 -133.622)" fill="#f17834"/><path d="M533.282,253.333l-164.9,96.38a2.923,2.923,0,0,1-2.95-5.048l164.9-96.38a2.923,2.923,0,0,1,2.95,5.048Z" transform="translate(-255.937 -139.327)" fill="#ccc"/><path d="M506.978,307.426,381.9,380.53a2.923,2.923,0,0,1-2.95-5.048l125.079-73.1a2.924,2.924,0,0,1,2.95,5.048Z" transform="translate(-259.309 -155.667)" fill="#ccc"/><path d="M513.2,168.71l-72.916,42.617a2.923,2.923,0,1,1-2.95-5.048l72.916-42.617a2.924,2.924,0,0,1,2.95,5.048Z" transform="translate(-272.603 -107.684)" fill="#ccc"/><path d="M508.523,205.989,453.8,237.97a2.924,2.924,0,1,1-2.95-5.048l54.719-31.981a2.924,2.924,0,0,1,2.951,5.048Z" transform="translate(-275.796 -123.445)" fill="#ccc"/><path d="M560.32,299.594l-164.9,96.379a2.923,2.923,0,1,1-2.95-5.048l164.9-96.38a2.923,2.923,0,0,1,2.95,5.048Z" transform="translate(-261.648 -153.914)" fill="#ccc"/><path d="M534.015,353.686l-125.079,73.1a2.923,2.923,0,1,1-2.95-5.048l125.079-73.1a2.924,2.924,0,0,1,2.95,5.048Z" transform="translate(-265.113 -170.099)" fill="#ccc"/><path d="M587.357,345.854l-164.9,96.38a2.924,2.924,0,0,1-2.95-5.048l164.9-96.379a2.924,2.924,0,1,1,2.951,5.048Z" transform="translate(-267.36 -168.501)" fill="#ccc"/><path d="M600.876,368.984l-164.9,96.38a2.924,2.924,0,0,1-2.95-5.048l164.9-96.38a2.924,2.924,0,1,1,2.95,5.048Z" transform="translate(-270.216 -175.795)" fill="#ccc"/><path d="M584.583,446.369a63.676,63.676,0,0,0,6.165-8.623c1.625-2.743,3.219-5.676,3.577-8.893a8.782,8.782,0,0,0-2.63-7.506,6.18,6.18,0,0,0-7.251-.824,7.374,7.374,0,0,0-3.7,6.585,9.741,9.741,0,0,0,4.161,7.377c4.874,3.531,12.486,3.347,17.681.659,5.851-3.027,8.875-10.946,4.278-16.367-.956-1.128-2.547.133-2.308,1.349a6.556,6.556,0,0,0,12.989-1.605l-2.067,1.208a15.779,15.779,0,0,0,15.7-1.684,14.636,14.636,0,0,0,2.937-2.839c1.011-1.32,2.711-2.172,4.087-3.123l9.916-6.851c1.458-1.008.072-3.409-1.4-2.393l-8.98,6.2c-1.5,1.034-3,2.055-4.49,3.1-1.063.749-1.717,1.957-2.685,2.846a13,13,0,0,1-13.72,2.321,1.4,1.4,0,0,0-2.067,1.208,3.795,3.795,0,1,1-7.537.893l-2.308,1.349c2.966,3.5.991,8.861-2.426,11.207a15.732,15.732,0,0,1-13.774,1.449,8.126,8.126,0,0,1-4.785-4.39,4.844,4.844,0,0,1,1.1-5.543,3.475,3.475,0,0,1,4.832-.052,6.216,6.216,0,0,1,1.647,5.607c-.444,2.777-1.979,5.338-3.408,7.71a59.235,59.235,0,0,1-5.515,7.681c-1.144,1.353.83,3.3,1.985,1.936Z" transform="translate(-304.458 -185.665)" fill="#f17834"/><path d="M614.916,546.359a6.519,6.519,0,0,1,.656.79l30.707-.751,3.582-6.546,10.586,4.115-5.216,12.2a4.955,4.955,0,0,1-5.151,2.972l-34.694-4.191a6.5,6.5,0,1,1-.471-8.594Z" transform="translate(-309.752 -226.603)" fill="#ffb7b7"/><path d="M519.832,694.394h-10.1l-4.8-38.945h14.9Z" transform="translate(-112.003 -201.984)" fill="#ffb7b7"/><path d="M744.426,805.283H711.87v-.411A12.672,12.672,0,0,1,724.541,792.2h19.886Z" transform="translate(-334.124 -303.085)" fill="#2f2e41"/><path d="M399.726,693.2l-9.285-3.967,10.881-37.7,13.7,5.854Z" transform="translate(-86.42 -201.011)" fill="#ffb7b7"/><path d="M617.94,802.713,588,789.923l.162-.379a12.672,12.672,0,0,1,16.631-6.675h0l18.285,7.812Z" transform="translate(-306.71 -300.516)" fill="#2f2e41"/><path d="M459.227,469.92l-.731,11.831,21.342,2.284,22.331,2.39L495.6,468.459Z" transform="translate(-101.028 -142.671)" fill="#ffb7b7"/><path d="M681.864,553.116l-8.291-57.8,14.37-4.71,4.221-5.788,20.539,1.215,3.016,6.755,10.952,5.175-1.683,31.258,1.228,26.149Z" transform="translate(-325.169 -212.259)" fill="#2f2e41"/><path d="M672.834,541.134l-14.617-5.848.062-.26c.063-.262,6.284-26.26,7.11-30.438a7.282,7.282,0,0,1,4.138-5.6l.1-.036,5.785,1.761,2.541,19.962Z" transform="translate(-322.549 -215.196)" fill="#2f2e41"/><path d="M633.37,733.081l-19.458-3.991,31.1-85.813,10.643-29.27s6.751-23.468,9.8-32.55l1.841-12.186,43.572,4.823s12.169,17.872,8.472,47l1.672,109.49-19.458,1-16.3-110.426-28.6,60.535s-9.016,25.832-15.466,31.431Z" transform="translate(-310.744 -247.74)" fill="#2f2e41"/><path d="M717.562,569.529a6.535,6.535,0,0,1,1.025.056l20.327-23.029-2.365-7.077,10.215-4.965,5.4,12.123a4.955,4.955,0,0,1-1.323,5.8l-26.661,22.591a6.5,6.5,0,1,1-6.622-5.5Z" transform="translate(-333.765 -226.435)" fill="#ffb7b7"/><path d="M743.089,540.8l-8.479-19.946,3.307-13.893,3.563-4.5a2.053,2.053,0,0,1,1.649.015c1.314.529,2.433,2.15,3.326,4.818l7.947,22.635Z" transform="translate(-339.475 -216.046)" fill="#2f2e41"/><path d="M687.367,463.366V448.329a20.15,20.15,0,0,1,40.3,0v15.037a2.71,2.71,0,0,1-2.707,2.707H690.074a2.71,2.71,0,0,1-2.707-2.707Z" transform="translate(-328.523 -193.281)" fill="#2f2e41"/><circle cx="14.773" cy="14.773" r="14.773" transform="translate(359.867 242.607)" fill="#ffb7b7"/><path d="M681.026,451.32a15.957,15.957,0,0,1,15.939-15.939h3.008a15.957,15.957,0,0,1,15.939,15.939v.3h-6.355l-2.168-6.07-.434,6.07H703.67l-1.094-3.063-.219,3.063H681.026Z" transform="translate(-327.254 -194.656)" fill="#2f2e41"/><path d="M706.558,471.756a2.667,2.667,0,0,1-.212-2.831c3.187-6.062,7.649-17.263,1.726-24.17l-.426-.5h17.195v25.815l-15.62,2.756a2.778,2.778,0,0,1-.479.042,2.7,2.7,0,0,1-2.184-1.116Z" transform="translate(-333.167 -197.838)" fill="#2f2e41"/><path d="M212.9,684.316l9.124,3.261,16.921-33.644-13.467-4.813Z" transform="translate(-47.108 -200.413)" fill="#9f616a"/><path d="M432.6,792.024l4.226-11.825,17.97,6.422a12.176,12.176,0,0,1,7.359,15.545l-.133.372Z" transform="translate(-272.449 -300.106)" fill="#2f2e41"/><path d="M291.835,695.6h9.69l4.61-37.375h-14.3Z" transform="translate(-64.742 -202.673)" fill="#9f616a"/><path d="M515.548,793.066h19.084a12.161,12.161,0,0,1,12.161,12.161v.4H515.548Z" transform="translate(-290.769 -303.301)" fill="#2f2e41"/><path d="M489.459,476.879l4.214-8.327s15.7,3.933,17.126,13.032Z" transform="translate(-285.135 -204.624)" fill="#f1f1f1"/><path d="M233.063,516.438l11.46,63.953-30.43,53.815,18.179,7.114L263.1,589.154l3.952-14.227,2.371,74.3,16.4-.5,7.517-69.375-12.056-64.493Z" transform="translate(-46.733 -167.079)" fill="#2f2e41"/><path d="M485.969,588.32c-16.836,0-27.526-3.22-27.765-3.271l-.388-.083,8.769-40.658.395-37.5c0-15.893,10.46-27.61,11.911-28.691a6.838,6.838,0,0,1,3.636-4.469c3.489-1.583,7.753.316,7.932.4l12.8,4.8.06.177c.154.455,17.01,55.789,17.01,55.789s-1.02,48.348-1.376,49.932C518.951,584.739,495.324,588.32,485.969,588.32Z" transform="translate(-277.616 -211.106)" fill="#3f3d56"/><circle cx="17.296" cy="17.296" r="17.296" transform="translate(204.508 228.694)" fill="#9f616a"/><path d="M259.823,432.715l30.259,42.219,4.468-19.716Z" transform="translate(-57.374 -132.967)" opacity="0.2"/><path d="M600.741,555.849a7.422,7.422,0,0,1-11.144-2.31l-26.045,4.169,5.643-12.491,23.868-2.044a7.463,7.463,0,0,1,7.679,12.677Z" transform="translate(-301.223 -227.211)" fill="#9f616a"/><path d="M345.842,455.535l9.358-.918,2.593,13.055-11.776.208Z" transform="translate(-76.763 -138.228)" fill="#f1f1f1"/><path d="M560.146,548.673l-45.833-4.081-23.143-36.8-.071-.325a12.671,12.671,0,0,1,23.654-8.484l13.585,26.5,27.418,4.144Z" transform="translate(-284.744 -213.793)" fill="#3f3d56"/><path d="M491.537,449.033l14.356.515c.875.031,3.25-9.412,3.561-11.372a5.347,5.347,0,0,1,5.578-4.325c1.075.1,3.784-1.906,6.581-4.283,5.309-4.513,5.032-12.99-.8-16.8q-.239-.156-.469-.286a25.546,25.546,0,0,0-12.2-2.8,22.81,22.81,0,0,0-11.118,2.242c-6.036,3.243-9.248,10.329-9.53,17.175s1.913,13.54,4.4,19.923" transform="translate(-284.474 -187.677)" fill="#2f2e41"/><path d="M805.913,810.175H227.777a.752.752,0,1,1,0-1.5H806.222a.765.765,0,0,1,.778.752C807,809.839,806.343,810.175,805.913,810.175Z" transform="translate(-227 -307.175)" fill="#cbcbcb"/></g></svg>