<svg xmlns="http://www.w3.org/2000/svg" width="91.069" height="100" viewBox="0 0 91.069 100"><g transform="translate(-11 -6.174)"><path d="M36.413,47.866H25.4a1.691,1.691,0,0,0-1.692,1.692v11.01A1.692,1.692,0,0,0,25.4,62.259h11.01A1.692,1.692,0,0,0,38.1,60.568V49.558A1.692,1.692,0,0,0,36.413,47.866Zm-1.692,11.01H27.095V51.25h7.626Z"/><path d="M62.091,47.866H51.082a1.691,1.691,0,0,0-1.692,1.692v11.01a1.692,1.692,0,0,0,1.692,1.692h11.01a1.692,1.692,0,0,0,1.692-1.692V49.558A1.692,1.692,0,0,0,62.091,47.866ZM60.4,58.876H52.773V51.25H60.4Z"/><path d="M86.978,47.866H75.968a1.692,1.692,0,0,0-1.692,1.692v11.01a1.692,1.692,0,0,0,1.692,1.692h11.01a1.692,1.692,0,0,0,1.692-1.692V49.558A1.692,1.692,0,0,0,86.978,47.866Zm-1.692,11.01H77.66V51.25h7.626Z"/><path d="M36.413,72.945H25.4a1.692,1.692,0,0,0-1.692,1.692v11.01A1.692,1.692,0,0,0,25.4,87.338h11.01A1.692,1.692,0,0,0,38.1,85.646V74.636A1.692,1.692,0,0,0,36.413,72.945Zm-1.692,11.01H27.095V76.328h7.626Z"/><path d="M62.091,72.945H51.082a1.692,1.692,0,0,0-1.692,1.692v11.01a1.692,1.692,0,0,0,1.692,1.692h11.01a1.692,1.692,0,0,0,1.692-1.692V74.636A1.692,1.692,0,0,0,62.091,72.945ZM60.4,83.954H52.773V76.328H60.4Z"/><path d="M86.978,72.945H75.968a1.692,1.692,0,0,0-1.692,1.692v11.01a1.692,1.692,0,0,0,1.692,1.692h11.01a1.692,1.692,0,0,0,1.692-1.692V74.636A1.692,1.692,0,0,0,86.978,72.945Zm-1.692,11.01H77.66V76.328h7.626Z"/><path d="M100.377,15.106H89.2c-.015,0-.027,0-.042,0V12.857a6.684,6.684,0,0,0-13.367,0v2.249H63.2V12.857a6.684,6.684,0,1,0-13.367,0v2.249H37.247V12.857a6.684,6.684,0,1,0-13.367,0v2.25H12.691A1.691,1.691,0,0,0,11,16.8v87.684a1.692,1.692,0,0,0,1.692,1.692h87.685a1.692,1.692,0,0,0,1.692-1.692V16.8A1.692,1.692,0,0,0,100.377,15.106Zm-21.2-2.249a3.3,3.3,0,0,1,6.6,0v9.335a3.3,3.3,0,0,1-6.6,0Zm-22.657-3.3a3.3,3.3,0,0,1,3.3,3.3v9.335a3.3,3.3,0,1,1-6.6,0V16.956c0-.053.016-.1.016-.159s-.011-.106-.016-.159v-3.78A3.3,3.3,0,0,1,56.521,9.557Zm-29.258,3.3a3.3,3.3,0,1,1,6.6,0v9.335a3.3,3.3,0,0,1-6.6,0ZM98.685,102.79h-84.3V18.49h9.5v3.7a6.684,6.684,0,0,0,13.367,0v-3.7H49.838v3.7a6.684,6.684,0,1,0,13.367,0v-3.7h12.59v3.7a6.684,6.684,0,1,0,13.367,0V18.485c.015,0,.027,0,.042,0h9.482Z"/></g></svg>