<svg xmlns="http://www.w3.org/2000/svg" xmlns:xlink="http://www.w3.org/1999/xlink" width="100" height="100" viewBox="0 0 100 100"><defs><clipPath id="a"><rect width="100" height="100" transform="translate(250 4496)" fill="#fff"/></clipPath></defs><g transform="translate(-250 -4496)" clip-path="url(#a)"><g transform="translate(250 4496)"><path d="M89.583,0H10.417A10.417,10.417,0,0,0,0,10.417V89.583A10.417,10.417,0,0,0,10.417,100H89.583A10.417,10.417,0,0,0,100,89.583V10.417A10.417,10.417,0,0,0,89.583,0ZM10.417,95.833a6.25,6.25,0,0,1-6.25-6.25V84.292L37.5,50.958,82.479,95.833Zm85.417-6.25a6.25,6.25,0,0,1-6.25,6.25H88.354L59.479,66.958,75.292,51.146,95.833,71.688Zm0-23.771L76.75,46.729a2.083,2.083,0,0,0-2.937,0L56.542,64,39.021,46.479a2.083,2.083,0,0,0-2.937,0L4.167,78.4V10.417a6.25,6.25,0,0,1,6.25-6.25H89.583a6.25,6.25,0,0,1,6.25,6.25Z"/><path d="M52.083,14.583a12.5,12.5,0,1,0,12.5,12.5,12.5,12.5,0,0,0-12.5-12.5Zm0,20.833a8.333,8.333,0,1,1,8.333-8.333A8.333,8.333,0,0,1,52.083,35.417Z"/></g></g></svg>