<svg xmlns="http://www.w3.org/2000/svg" width="100" height="97.627" viewBox="0 0 100 97.627"><path d="M21.044,50.622a2.058,2.058,0,0,0,1.387-.589c4.2-4.289,9.706-6.265,17.251-6.265h.163c1.468,0,3.018.084,4.568.126,6.933.294,14.763.589,20.84-4.162l2.61,2.565a1.847,1.847,0,0,0,1.346.547,2.677,2.677,0,0,0,.571-.084,2.02,2.02,0,0,0,1.346-1.472l2.651-11.646a2.007,2.007,0,0,0-.571-1.934,1.905,1.905,0,0,0-1.917-.462L60.2,30.693a2.04,2.04,0,0,0-.775,3.406l2.9,2.817c-4.894,3.448-11.419,3.2-17.741,2.943-1.591-.084-3.181-.126-4.69-.126h-.163c-8.646,0-15.008,2.354-19.984,7.442a2.089,2.089,0,0,0-.041,2.859A1.823,1.823,0,0,0,21.044,50.622Zm48.124-18.5-1.1,4.835L64.56,33.552Z" transform="translate(-2.202 -4.163)" fill="#fff"/><path d="M38.377,29.774a2.016,2.016,0,0,0,.693-.126l2.08-.8.775,2.144a1.982,1.982,0,0,0,1.835,1.3A1.985,1.985,0,0,0,45.6,29.563l-.775-2.144,2.08-.8a2.007,2.007,0,0,0,1.142-2.607,1.945,1.945,0,0,0-2.529-1.177l-2.08.8-.775-2.144a1.945,1.945,0,0,0-2.529-1.177,2.007,2.007,0,0,0-1.142,2.607l.775,2.144-2.08.8a2.007,2.007,0,0,0-1.142,2.607A1.942,1.942,0,0,0,38.377,29.774Z" transform="translate(-2.202 -4.379)" fill="#fff"/><path d="M45.106,50.14a6.224,6.224,0,0,0-8.32,3.2,6.723,6.723,0,0,0-.163,4.961A6.26,6.26,0,0,0,42.5,62.5a5.7,5.7,0,0,0,2.2-.42,6.215,6.215,0,0,0,3.507-3.364,6.723,6.723,0,0,0,.163-4.961A6.245,6.245,0,0,0,45.106,50.14Zm-.449,6.9A2.3,2.3,0,0,1,43.352,58.3a2.229,2.229,0,0,1-1.794-.084,2.308,2.308,0,0,1-1.223-1.345,2.456,2.456,0,0,1,2.243-3.279,2.731,2.731,0,0,1,.979.21,2.308,2.308,0,0,1,1.223,1.345A2.981,2.981,0,0,1,44.657,57.035Z" transform="translate(-2.202 -3.47)" fill="#fff"/><path d="M70.759,23.925a1.928,1.928,0,0,0,1.55.757,1.966,1.966,0,0,0,1.223-.42L83.85,15.81a2.1,2.1,0,0,0,.326-2.859,1.952,1.952,0,0,0-2.773-.336l-8.809,7.232L69.657,16.1a1.915,1.915,0,0,0-2.773-.294,2.058,2.058,0,0,0-.285,2.859Z" transform="translate(-2.202 -4.626)" fill="#fff"/><path d="M100.245,4.853H4.16A1.989,1.989,0,0,0,2.2,6.871,2.016,2.016,0,0,0,4.16,8.889H8.85V70.358a1.989,1.989,0,0,0,1.958,2.018H32.586L24.307,99.831a2.016,2.016,0,0,0,1.305,2.523,1.445,1.445,0,0,0,.571.084,1.929,1.929,0,0,0,1.876-1.43L36.7,72.418h31l8.646,28.632a1.929,1.929,0,0,0,1.876,1.43,2.34,2.34,0,0,0,.571-.084A2.05,2.05,0,0,0,80.1,99.873L71.819,72.418H93.6A1.989,1.989,0,0,0,95.555,70.4V8.931h4.69A1.989,1.989,0,0,0,102.2,6.913,2.054,2.054,0,0,0,100.245,4.853ZM91.639,68.34H12.765V8.931H91.639Z" transform="translate(-2.202 -4.853)" fill="#fff"/></svg>