<svg xmlns="http://www.w3.org/2000/svg" width="83.33" height="100" viewBox="0 0 83.33 100"><path d="M69.529,39.953,60.214,57.689c-.753,1.43-1.546,2.9-2.3,4.454a1.95,1.95,0,0,0,.872,2.615,2.078,2.078,0,0,0,.832.2,1.87,1.87,0,0,0,1.7-1.1c.674-1.43,1.467-2.9,2.22-4.291L72.9,41.833c.079-.163.238-.45.2-.49.079.082.2.327.317.49l1.11,2.084c3.409,6.5,6.977,13.2,10.465,19.82a1.87,1.87,0,0,0,2.577.776,1.99,1.99,0,0,0,.753-2.656C84.83,55.278,81.3,48.535,77.854,42.037l-1.11-2.084a3.856,3.856,0,0,0-7.215,0Z" transform="translate(-9.078 -1.13)" fill="#fff"/><path d="M90.658,67.432l-.634-.041h-.357c-.079,0-.238-.041-.317-.041a8.691,8.691,0,0,0-1.031-.041H57.875c-.357,0-.674.041-1.15.041H56.21l-.634.041a1.829,1.829,0,0,0-1.308.695,2.048,2.048,0,0,0-.436,1.43l.04.613A14.768,14.768,0,0,0,59.5,81.04a22.133,22.133,0,0,0,27.273,0,14.847,14.847,0,0,0,5.589-10.87l.04-.654A1.94,1.94,0,0,0,90.658,67.432ZM84.394,77.975a18.417,18.417,0,0,1-22.516,0,10.773,10.773,0,0,1-4.043-6.784h30.6A11.129,11.129,0,0,1,84.394,77.975Z" transform="translate(-9.078 -0.207)" fill="#fff"/><path d="M28.581,26.045A11.729,11.729,0,0,0,40.116,14.153,11.791,11.791,0,0,0,28.581,2.22,11.8,11.8,0,0,0,17.006,14.153,11.736,11.736,0,0,0,28.581,26.045Zm0-19.9a7.862,7.862,0,0,1,7.73,7.969,7.888,7.888,0,0,1-7.73,7.969,7.888,7.888,0,0,1-7.73-7.969A7.862,7.862,0,0,1,28.581,6.143Z" transform="translate(-9.078 -2.22)" fill="#fff"/><path d="M42.613,40.179a1.9,1.9,0,0,0-2.022,1.839L38.808,68.99a.378.378,0,0,1-.04.2L37.1,95.431a2.235,2.235,0,0,1-2.18,2.125H22.238a2.235,2.235,0,0,1-2.18-2.125L18.393,69.194a1.959,1.959,0,0,0-1.348-1.757c-2.458-.776-2.458-.776-2.656-3.555L12.883,36.093v-.327h.04c2.933-.9,5.867-1.88,8.879-2.861,1.268,1.553,2.616,3.106,3.964,4.7L27.114,39.2a1.894,1.894,0,0,0,1.427.654h0a1.894,1.894,0,0,0,1.427-.654l1.586-1.839c1.268-1.512,2.5-2.942,3.726-4.414h.2L55.1,37.4a1.311,1.311,0,0,0,.793,0l17.6-3.719a1.937,1.937,0,0,0,1.467-2.329A1.88,1.88,0,0,0,72.7,29.84L55.5,33.477l-19.345-4.5c-.079,0-.159-.041-.238-.041a4.059,4.059,0,0,0-3.369,1.226c-1.229,1.512-2.5,2.983-3.805,4.536l-.159.163c-1.387-1.594-2.7-3.147-3.964-4.7a3.306,3.306,0,0,0-3.805-1.144c-2.973.981-5.986,1.962-9,2.9a3.8,3.8,0,0,0-2.735,3.8v.49l1.467,27.421.04.45c.277,4.168.951,5.435,4.083,6.62l1.586,24.888a6.131,6.131,0,0,0,5.986,5.8H34.884a6.1,6.1,0,0,0,5.986-5.8l1.665-26.032a.378.378,0,0,1,.04-.2L44.4,42.182A1.924,1.924,0,0,0,42.613,40.179Z" transform="translate(-9.078 -1.397)" fill="#fff"/></svg>