<svg xmlns="http://www.w3.org/2000/svg" width="98.86" height="100" viewBox="0 0 98.86 100"><g transform="translate(-28.656 -29.326)"><path d="M124.913,43.282v72.087a11.5,11.5,0,0,1-11.453,11.477H42.588a11.5,11.5,0,0,1-11.453-11.453V43.282A11.5,11.5,0,0,1,42.588,31.8h70.873" fill="none" stroke="#000" stroke-linecap="round" stroke-linejoin="round" stroke-width="4.958"/><circle cx="2.479" cy="2.479" r="2.479" transform="translate(122.558 32.548)"/><circle cx="2.479" cy="2.479" r="2.479" transform="translate(94.274 59.494)"/><path d="M58.924,50.372a9.3,9.3,0,0,0-8.6,9.271V99.008a9.346,9.346,0,0,0,9.321,9.321H80.937" fill="none" stroke="#000" stroke-linecap="round" stroke-linejoin="round" stroke-width="4.958"/><path d="M80.937,108.329H99.008a9.346,9.346,0,0,0,9.321-9.321V59.643a9.346,9.346,0,0,0-9.321-9.321H59.643a3.4,3.4,0,0,0-.719,0" fill="none" stroke="#000" stroke-linecap="round" stroke-linejoin="round" stroke-width="4.958"/><path d="M84.284,66.287a13.981,13.981,0,1,0,9.023,13.039" fill="none" stroke="#000" stroke-linecap="round" stroke-linejoin="round" stroke-width="4.958"/></g></svg>