<svg xmlns="http://www.w3.org/2000/svg" width="100" height="94.886" viewBox="0 0 100 94.886"><g transform="translate(-1.119 -3.715)"><path d="M67.559,34.6a2.673,2.673,0,0,0-1.318-.719L57.451,32.6l-3.915-7.91a3.059,3.059,0,0,0-1.558-1.278,2.719,2.719,0,0,0-2.157.2A3.092,3.092,0,0,0,48.7,24.65L44.786,32.6,36.2,33.839l-.16.04a2.916,2.916,0,0,0-1.558.959l-.16.2a2.817,2.817,0,0,0-.439,2.038,3.032,3.032,0,0,0,.759,1.518l6.232,6.073-1.478,8.71a2.9,2.9,0,0,0,.479,1.878l.16.2a2.825,2.825,0,0,0,1.678.959,1.791,1.791,0,0,0,.439.04,2.489,2.489,0,0,0,1.239-.32L51.058,52.1l7.791,4.115a2.664,2.664,0,0,0,2,.08,2.9,2.9,0,0,0,1.678-1.478,3.3,3.3,0,0,0,.24-1.6l-1.478-8.55L67.6,38.514a2.764,2.764,0,0,0,.719-1.878v-.2A2.387,2.387,0,0,0,67.559,34.6Zm-10.427,8.67,1.438,8.27-7.431-3.915-7.431,3.915,1.4-8.27-5.993-5.873,8.31-1.2,3.716-7.511L54.854,36.2l8.31,1.2Z"/><path d="M96.244,14.582H84.618V7.271a3.564,3.564,0,0,0-3.556-3.556H21.214a3.564,3.564,0,0,0-3.556,3.556v7.311H6.033A4.911,4.911,0,0,0,1.119,19.5V29.644A21.777,21.777,0,0,0,18.937,51.058a32.78,32.78,0,0,0,7.071,13.7A33.3,33.3,0,0,0,41.55,74.67L35.4,87.934h-.04a3.59,3.59,0,0,0-3.6,3.636V98.6H70.475V91.57a3.581,3.581,0,0,0-3.6-3.6L60.687,74.71A33.3,33.3,0,0,0,76.228,64.8,32.78,32.78,0,0,0,83.3,51.1a21.738,21.738,0,0,0,17.819-21.414V19.5A4.851,4.851,0,0,0,96.244,14.582ZM5.074,29.644V19.5a.989.989,0,0,1,1-1H17.7V40.112a47.4,47.4,0,0,0,.479,6.712A17.813,17.813,0,0,1,5.074,29.644ZM79.944,48.1a29.018,29.018,0,0,1-6.632,14.023,29.582,29.582,0,0,1-14.582,8.989l-3.6.919,9.229,19.856h2.2v2.757H35.717V91.889h2.2l9.229-19.856-3.556-.919a29.582,29.582,0,0,1-14.582-8.989A29.191,29.191,0,0,1,22.373,48.1a44.382,44.382,0,0,1-.759-7.99V7.631H80.663V40.112A44.032,44.032,0,0,1,79.944,48.1ZM97.2,29.644A17.87,17.87,0,0,1,84.139,46.824a46.571,46.571,0,0,0,.479-6.712V18.5H96.244a.989.989,0,0,1,1,1V29.644Z"/></g></svg>