<svg xmlns="http://www.w3.org/2000/svg" width="100" height="75.695" viewBox="0 0 100 75.695"><path d="M112.38,99.313a120.572,120.572,0,0,1-6.57-49.241A11.1,11.1,0,0,0,96.563,38.2L14.328,25.8a1.514,1.514,0,0,0-1.709,1.3A17.719,17.719,0,0,0,15.99,39.542c3.6,4.815,9.672,7.734,18.007,8.718l4.934,8.854a16.618,16.618,0,0,0,12.57,8.5l5.1,9.657a10.754,10.754,0,0,0,9.494,5.821h3.3l3.6,5.456a13.979,13.979,0,0,0,11.664,6.368h18.766a65.108,65.108,0,0,0,6.474,8.092,1.485,1.485,0,0,0,1.925.215,1.593,1.593,0,0,0,.565-1.909ZM41.556,55.554l-3.843-6.891C53.64,50.243,73.222,51.98,83.853,52.9a7.92,7.92,0,0,1,7.068,6.914c.225,1.558.54,3.37.955,5.346L52.554,62.6a13.6,13.6,0,0,1-11-7.05Zm17.7,18.222-4.15-7.87,37.508,2.441a83.543,83.543,0,0,0,3.044,9.614H66.083a7.729,7.729,0,0,1-6.826-4.185ZM84.647,89.787a10.961,10.961,0,0,1-9.152-5l-2.441-3.7H96.927a74.072,74.072,0,0,0,4.475,8.7Zm9.277-30.428A10.98,10.98,0,0,0,84.107,49.8c-11.286-.984-32.667-2.879-49.031-4.53-7.863-.8-13.469-3.347-16.659-7.581a14.716,14.716,0,0,1-2.876-8.532L96.123,41.3a7.98,7.98,0,0,1,6.655,8.529,126.25,126.25,0,0,0,4.241,42.9c-8.879-12.249-12-25.757-13.093-33.375Z" transform="translate(-12.507 -25.786)" fill="#fff"/></svg>